<svg width="166" height="166" viewBox="0 0 166 166" fill="none" xmlns="http://www.w3.org/2000/svg">
    <style>
        path {
            fill: #09090B
        }
        @media (prefers-color-scheme: dark) {
            path {
                fill: #D7D7D7
            }
        }
    </style>
    <path d="M0 7C0 3.13401 3.13401 0 7 0H43C46.866 0 50 3.13401 50 7V43C50 46.866 46.866 50 43 50H7C3.13401 50 0 46.866 0 43V7Z" fill="currentColor" fill-opacity="0.501961"/>
    <path d="M58 7C58 3.13401 61.134 0 65 0H101C104.866 0 108 3.13401 108 7V43C108 46.866 104.866 50 101 50H65C61.134 50 58 46.866 58 43V7Z" fill="currentColor" fill-opacity="0.501961"/>
    <path d="M116 7C116 3.13401 119.134 0 123 0H159C162.866 0 166 3.13401 166 7V43C166 46.866 162.866 50 159 50H123C119.134 50 116 46.866 116 43V7Z" fill="currentColor" fill-opacity="0.501961"/>
    <path d="M116 65C116 61.134 119.134 58 123 58H159C162.866 58 166 61.134 166 65V101C166 104.866 162.866 108 159 108H123C119.134 108 116 104.866 116 101V65Z" fill="currentColor" fill-opacity="0.501961"/>
    <path d="M58 65C58 61.134 61.134 58 65 58H101C104.866 58 108 61.134 108 65V101C108 104.866 104.866 108 101 108H65C61.134 108 58 104.866 58 101V65Z" fill="currentColor" fill-opacity="0.501961"/>
    <path d="M0 123C0 119.134 3.13401 116 7 116H43C46.866 116 50 119.134 50 123V159C50 162.866 46.866 166 43 166H7C3.13401 166 0 162.866 0 159V123Z" fill="currentColor" fill-opacity="0.501961"/>
    <path d="M58 123C58 119.134 61.134 116 65 116H101C104.866 116 108 119.134 108 123V159C108 162.866 104.866 166 101 166H65C61.134 166 58 162.866 58 159V123Z" fill="currentColor" fill-opacity="0.501961"/>
    <path d="M116 123C116 119.134 119.134 116 123 116H159C162.866 116 166 119.134 166 123V159C166 162.866 162.866 166 159 166H123C119.134 166 116 162.866 116 159V123Z" fill="currentColor" fill-opacity="0.501961"/>
</svg>
